# Alias OBJ Model File
# Exported from SketchUp, (c) 2000-2012 Trimble Navigation Limited
# File units = meters

mtllib DoveSoap.mtl

g Mesh1 Model

usemtl Dove_Soap_box
v 1.80478e-16 0.0770751 -1.80478e-16
vt 0.208837 0.496517
vn 0 1 -0
v 0.104 0.0770751 -1.80478e-16
vt 0.782441 0.496517
v 0.104 0.0770751 -0.0422
vt 0.782441 0.674651
v 0 0.0770751 -0.0422
vt 0.208837 0.674651
f 1/1/1 2/2/1 3/3/1 4/4/1 

v 0.104 0 -1.80478e-16
vt 0.782441 0.171168
vn 4.98291e-16 6.60581e-16 1
v 0 0.000675139 -0
vt 0.208837 0.174018
v 1.80478e-16 0 -1.80478e-16
vt 0.208837 0.171168
f 5/5/2 2/2/2 1/1/2 6/6/2 7/7/2 

vt 0.938674 0.980475
vn 1 0 -0
v 0.104 0 -0.0412249
vt 0.734267 0.981306
v 0.104 5.63993e-18 -0.0422
vt 0.729432 0.981325
v 0.104 0.000675139 -0.0422
vt 0.729414 0.978763
vt 0.727404 0.688839
vt 0.936645 0.687989
f 5/8/3 8/9/3 9/10/3 10/11/3 3/12/3 2/13/3 

v 1.80478e-16 0 -0.0412249
vt 0.208837 1.94289e-16
vn -1.76714e-17 -1 1.65386e-17
vt 0.782441 1.94289e-16
vt 0.782441 0.174018
v 3.60956e-16 5.63993e-18 -0.0129655
vt 0.208837 0.119288
f 11/14/4 8/15/4 5/16/4 7/6/4 12/17/4 

vt 0.265995 0.689455
vn -1 -1.99484e-15 -1.50683e-15
v 3.60956e-16 0.000675139 -0.0422
vt 0.265995 0.984187
v 3.60956e-16 2.25597e-17 -0.0422
vt 0.265995 0.986792
vt 0.26108 0.986792
vt 0.118637 0.986792
vt 0.0532836 0.984187
vt 0.0532836 0.689455
f 4/18/5 13/19/5 14/20/5 11/21/5 12/22/5 6/23/5 1/24/5 

vt 0.208837 0.99715
vn 2.1692e-16 8.85853e-16 -1
vt 0.782441 0.99715
f 13/25/6 4/4/6 3/3/6 10/26/6 

vn 8.67682e-16 -3.01954e-31 -1
f 9/5/7 14/7/7 13/6/7 10/16/7 

